<?xml version="1.0" encoding="UTF-8" standalone="no"?><!DOCTYPE svg PUBLIC "-//W3C//DTD SVG 1.1//EN" "http://www.w3.org/Graphics/SVG/1.1/DTD/svg11.dtd"><svg width="100%" height="100%" viewBox="0 0 3250 670" version="1.1" xmlns="http://www.w3.org/2000/svg" xmlns:xlink="http://www.w3.org/1999/xlink" xml:space="preserve" xmlns:serif="http://www.serif.com/" style="fill-rule:evenodd;clip-rule:evenodd;stroke-linejoin:round;stroke-miterlimit:2;"><path d="M1544.65,265.207c-6.755,-22.467 -18.643,-40.111 -35.666,-52.93c-17.024,-12.819 -38.285,-19.229 -63.786,-19.229c-22.743,0 -43.006,5.721 -60.787,17.161c-17.781,11.441 -31.737,28.189 -41.869,50.243c-10.131,22.054 -15.196,49.002 -15.196,80.843c0,47.968 11.061,84.806 33.184,110.513c22.124,25.707 50.898,38.56 86.322,38.56c31.841,0 57.204,-8.89 76.088,-26.672c18.884,-17.781 28.602,-41.765 29.153,-71.952l-97.59,0l0,-59.96l171.817,0l0,50.863c0,36.389 -7.719,67.782 -23.158,94.178c-15.438,26.397 -36.665,46.728 -63.681,60.994c-27.017,14.267 -58.031,21.4 -93.042,21.4c-38.871,0 -73.055,-8.787 -102.553,-26.362c-29.497,-17.574 -52.482,-42.592 -68.954,-75.053c-16.472,-32.462 -24.708,-71.022 -24.708,-115.682c0,-45.487 8.478,-84.496 25.432,-117.026c16.954,-32.53 40.042,-57.479 69.264,-74.847c29.222,-17.368 62.304,-26.051 99.245,-26.051c31.289,0 59.615,5.996 84.978,17.988c25.362,11.992 46.245,28.567 62.648,49.725c16.403,21.159 26.741,45.591 31.014,73.296l-78.155,0Z" style="fill:#333549;fill-rule:nonzero;"/><path d="M1835.77,559.633c-31.014,0 -57.893,-6.824 -80.636,-20.47c-22.744,-13.646 -40.353,-32.771 -52.827,-57.375c-12.475,-24.605 -18.712,-53.241 -18.712,-85.909c0,-32.806 6.237,-61.511 18.712,-86.115c12.474,-24.604 30.083,-43.764 52.827,-57.479c22.743,-13.715 49.622,-20.573 80.636,-20.573c31.014,0 57.927,6.858 80.739,20.573c22.813,13.715 40.422,32.875 52.827,57.479c12.406,24.604 18.608,53.309 18.608,86.115c0,32.668 -6.202,61.304 -18.608,85.909c-12.405,24.604 -30.014,43.729 -52.827,57.375c-22.812,13.646 -49.725,20.47 -80.739,20.47Zm0.413,-59.961c16.954,0 31.049,-4.617 42.282,-13.853c11.234,-9.235 19.643,-21.744 25.225,-37.526c5.583,-15.783 8.374,-33.323 8.374,-52.621c0,-19.435 -2.791,-37.044 -8.374,-52.827c-5.582,-15.782 -13.991,-28.36 -25.225,-37.733c-11.233,-9.373 -25.328,-14.06 -42.282,-14.06c-17.092,0 -31.324,4.687 -42.696,14.06c-11.371,9.373 -19.883,21.951 -25.534,37.733c-5.652,15.783 -8.478,33.392 -8.478,52.827c0,19.298 2.826,36.838 8.478,52.621c5.651,15.782 14.163,28.291 25.534,37.526c11.372,9.236 25.604,13.853 42.696,13.853Z" style="fill:#333549;fill-rule:nonzero;"/><path d="M2054.52,129.987l93.869,0l125.709,306.831l4.963,0l125.709,-306.831l93.869,0l0,423.443l-73.606,0l0,-290.911l-3.929,0l-117.026,289.67l-54.998,0l-117.025,-290.29l-3.929,0l0,291.531l-73.606,0l0,-423.443Z" style="fill:#333549;fill-rule:nonzero;"/><path d="M2578.86,553.43l0,-317.582l74.847,0l0,317.582l-74.847,0Zm37.631,-362.656c-11.992,0 -22.227,-3.963 -30.704,-11.889c-8.477,-7.925 -12.716,-17.471 -12.716,-28.636c0,-11.303 4.239,-20.917 12.716,-28.843c8.477,-7.925 18.712,-11.888 30.704,-11.888c11.854,0 22.019,3.963 30.497,11.888c8.477,7.926 12.715,17.54 12.715,28.843c0,11.165 -4.238,20.711 -12.715,28.636c-8.478,7.926 -18.643,11.889 -30.497,11.889Z" style="fill:#333549;fill-rule:nonzero;"/><path d="M2805.47,367.346l0,186.084l-74.847,0l0,-317.582l71.538,0l0,53.964l3.722,0c7.306,-17.644 18.988,-31.738 35.046,-42.283c16.058,-10.544 35.941,-15.817 59.65,-15.817c32.806,0 59.167,10.407 79.085,31.221c19.918,20.814 29.808,50.243 29.67,88.286l0,202.211l-74.847,0l0,-190.632c0,-21.228 -5.479,-37.837 -16.437,-49.829c-10.958,-11.992 -26.086,-17.988 -45.384,-17.988c-19.711,0 -35.838,6.306 -48.381,18.918c-12.544,12.612 -18.815,30.428 -18.815,53.447Z" style="fill:#333549;fill-rule:nonzero;"/><path d="M3244.21,235.848l0,57.892l-62.648,0l0,164.167c0,15.024 3.308,24.914 9.924,29.67c6.616,4.755 14.611,7.133 23.984,7.133c4.687,0 8.994,-0.344 12.923,-1.034c3.928,-0.689 6.926,-1.309 8.994,-1.86l12.612,58.512c-3.997,1.379 -9.683,2.895 -17.058,4.549c-7.374,1.654 -16.368,2.619 -26.982,2.895c-28.119,0.827 -51.724,-6.065 -70.815,-20.676c-19.091,-14.611 -28.567,-36.872 -28.429,-66.783l0,-176.573l-45.074,0l0,-57.892l45.074,0l0,-76.088l74.847,0l0,76.088l62.648,0Z" style="fill:#333549;fill-rule:nonzero;"/><path d="M312.085,396.893c-11.781,69.553 -8.582,142.753 12.104,215.047c5.616,19.627 12.36,38.626 20.275,56.871c-184.898,-56.028 -326.162,-220.808 -343.013,-425.55c-0.815,-9.909 -1.328,-19.774 -1.451,-29.563c59.723,-34.468 127.827,-56.568 201.056,-62.627c72.533,-6.001 142.679,4.35 206.73,28c-38.95,50.229 -67.878,107.797 -84.897,169.274c-90.044,6.134 -177.025,-28.7 -238.12,-91.832c50.154,79.699 134.729,131.366 227.316,140.38Z" style="fill:#00c069;"/><path d="M385.466,482.287c2.277,-266.574 218.828,-482.287 485.232,-482.287c30.133,0 59.627,2.76 88.147,8.172c26.51,59.969 41.155,126.255 41.155,195.944c0,219.664 -145.506,405.523 -345.07,465.884c-15.901,-38.486 -39.46,-72.999 -68.767,-101.622c-6.786,-6.716 -13.888,-13.114 -21.28,-19.169c29.298,-122.914 105.175,-227.752 207.837,-294.602c-118.865,47.17 -214.733,140.136 -265.962,257.147c-36.81,-18.149 -77.822,-29.035 -121.17,-30.784l-0.034,1.32l-0.088,-0.003Z" style="fill:#0cf18a;"/></svg>