<?xml version="1.0" encoding="UTF-8" standalone="no"?><!DOCTYPE svg PUBLIC "-//W3C//DTD SVG 1.1//EN" "http://www.w3.org/Graphics/SVG/1.1/DTD/svg11.dtd"><svg width="100%" height="100%" viewBox="0 0 1000 670" version="1.1" xmlns="http://www.w3.org/2000/svg" xmlns:xlink="http://www.w3.org/1999/xlink" xml:space="preserve" xmlns:serif="http://www.serif.com/" style="fill-rule:evenodd;clip-rule:evenodd;stroke-linejoin:round;stroke-miterlimit:2;"><path d="M312.085,396.893c-11.781,69.553 -8.582,142.753 12.104,215.047c5.616,19.627 12.36,38.626 20.275,56.871c-184.898,-56.028 -326.162,-220.808 -343.013,-425.55c-0.815,-9.909 -1.328,-19.774 -1.451,-29.563c59.723,-34.468 127.827,-56.568 201.056,-62.627c72.533,-6.001 142.679,4.35 206.73,28c-38.95,50.229 -67.878,107.797 -84.897,169.274c-90.044,6.134 -177.025,-28.7 -238.12,-91.832c50.154,79.699 134.729,131.366 227.316,140.38Z" style="fill:#00c069;"/><path d="M385.466,482.287c2.277,-266.574 218.828,-482.287 485.232,-482.287c30.133,0 59.627,2.76 88.147,8.172c26.51,59.969 41.155,126.255 41.155,195.944c0,219.664 -145.506,405.523 -345.07,465.884c-15.901,-38.486 -39.46,-72.999 -68.767,-101.622c-6.786,-6.716 -13.888,-13.114 -21.28,-19.169c29.298,-122.914 105.175,-227.752 207.837,-294.602c-118.865,47.17 -214.733,140.136 -265.962,257.147c-36.81,-18.149 -77.822,-29.035 -121.17,-30.784l-0.034,1.32l-0.088,-0.003Z" style="fill:#0cf18a;"/></svg>