<?xml version="1.0" encoding="UTF-8" standalone="no"?><!DOCTYPE svg PUBLIC "-//W3C//DTD SVG 1.1//EN" "http://www.w3.org/Graphics/SVG/1.1/DTD/svg11.dtd"><svg width="100%" height="100%" viewBox="0 0 901 235" version="1.1" xmlns="http://www.w3.org/2000/svg" xmlns:xlink="http://www.w3.org/1999/xlink" xml:space="preserve" xmlns:serif="http://www.serif.com/" style="fill-rule:evenodd;clip-rule:evenodd;stroke-linejoin:round;stroke-miterlimit:2;"><clipPath id="_clip1"><rect id="gomint-text-black" x="0" y="0" width="900.901" height="185.724"/></clipPath><g clip-path="url(#_clip1)"><path d="M86.51,110.019c-3.266,19.28 -2.379,39.571 3.355,59.611c1.557,5.441 3.426,10.707 5.621,15.765c-51.254,-15.531 -90.413,-61.208 -95.084,-117.963c-0.226,-2.747 -0.368,-5.481 -0.402,-8.195c16.555,-9.554 35.434,-15.681 55.733,-17.36c20.106,-1.664 39.55,1.206 57.305,7.762c-10.797,13.923 -18.815,29.881 -23.533,46.922c-24.96,1.701 -49.071,-7.955 -66.007,-25.456c13.903,22.093 37.347,36.415 63.012,38.914Z" style="fill:#00c069;"/><path d="M106.851,133.69c0.631,-73.894 60.659,-133.69 134.507,-133.69c8.353,0 16.528,0.765 24.434,2.265c7.349,16.624 11.408,34.998 11.408,54.316c0,60.891 -40.334,112.411 -95.653,129.143c-4.408,-10.668 -10.939,-20.235 -19.062,-28.169c-1.882,-1.862 -3.85,-3.636 -5.899,-5.314c8.121,-34.072 29.154,-63.133 57.612,-81.664c-32.949,13.076 -59.524,38.846 -73.725,71.281c-10.203,-5.031 -21.572,-8.048 -33.588,-8.533l-0.009,0.366l-0.025,-0.001Z" style="fill:#0cf18a;"/><path d="M428.177,73.515c-1.872,-6.227 -5.167,-11.118 -9.886,-14.672c-4.719,-3.553 -10.613,-5.33 -17.682,-5.33c-6.304,0 -11.921,1.586 -16.85,4.757c-4.929,3.171 -8.797,7.814 -11.606,13.927c-2.808,6.114 -4.212,13.584 -4.212,22.41c0,13.297 3.066,23.508 9.198,30.634c6.133,7.126 14.109,10.689 23.929,10.689c8.826,0 15.857,-2.464 21.091,-7.393c5.235,-4.929 7.929,-11.578 8.082,-19.945l-27.052,0l0,-16.621l47.627,0l0,14.099c0,10.087 -2.139,18.789 -6.419,26.106c-4.279,7.317 -10.164,12.953 -17.652,16.908c-7.49,3.954 -16.087,5.932 -25.792,5.932c-10.775,0 -20.251,-2.436 -28.427,-7.308c-8.177,-4.871 -14.548,-11.806 -19.114,-20.805c-4.567,-8.998 -6.85,-19.687 -6.85,-32.067c0,-12.609 2.351,-23.422 7.05,-32.439c4.7,-9.018 11.1,-15.934 19.2,-20.748c8.101,-4.814 17.271,-7.221 27.511,-7.221c8.673,0 16.525,1.662 23.556,4.986c7.03,3.324 12.819,7.919 17.366,13.784c4.547,5.865 7.413,12.638 8.597,20.317l-21.665,0Z" style="fill:#fff;fill-rule:nonzero;"/><path d="M508.876,155.13c-8.597,0 -16.048,-1.891 -22.352,-5.674c-6.305,-3.783 -11.186,-9.084 -14.644,-15.904c-3.458,-6.821 -5.187,-14.759 -5.187,-23.814c0,-9.094 1.729,-17.051 5.187,-23.871c3.458,-6.821 8.339,-12.132 14.644,-15.934c6.304,-3.801 13.755,-5.702 22.352,-5.702c8.597,0 16.057,1.901 22.381,5.702c6.324,3.802 11.205,9.113 14.643,15.934c3.439,6.82 5.159,14.777 5.159,23.871c0,9.055 -1.72,16.993 -5.159,23.814c-3.438,6.82 -8.319,12.121 -14.643,15.904c-6.324,3.783 -13.784,5.674 -22.381,5.674Zm0.114,-16.621c4.7,0 8.607,-1.28 11.721,-3.84c3.114,-2.56 5.445,-6.027 6.992,-10.402c1.548,-4.375 2.322,-9.237 2.322,-14.587c0,-5.387 -0.774,-10.268 -2.322,-14.643c-1.547,-4.375 -3.878,-7.862 -6.992,-10.46c-3.114,-2.598 -7.021,-3.897 -11.721,-3.897c-4.737,0 -8.683,1.299 -11.835,3.897c-3.152,2.598 -5.511,6.085 -7.078,10.46c-1.567,4.375 -2.35,9.256 -2.35,14.643c0,5.35 0.783,10.212 2.35,14.587c1.567,4.375 3.926,7.842 7.078,10.402c3.152,2.56 7.098,3.84 11.835,3.84Z" style="fill:#fff;fill-rule:nonzero;"/><path d="M569.514,36.032l26.02,0l34.847,85.054l1.375,0l34.847,-85.054l26.02,0l0,117.379l-20.403,0l0,-80.641l-1.089,0l-32.44,80.297l-15.245,0l-32.44,-80.469l-1.089,0l0,80.813l-20.403,0l0,-117.379Z" style="fill:#fff;fill-rule:nonzero;"/><path d="M714.861,153.411l0,-88.034l20.747,0l0,88.034l-20.747,0Zm10.431,-100.528c-3.324,0 -6.161,-1.099 -8.511,-3.296c-2.35,-2.197 -3.525,-4.843 -3.525,-7.938c0,-3.133 1.175,-5.798 3.525,-7.995c2.35,-2.197 5.187,-3.296 8.511,-3.296c3.286,0 6.104,1.099 8.454,3.296c2.35,2.197 3.524,4.862 3.524,7.995c0,3.095 -1.174,5.741 -3.524,7.938c-2.35,2.197 -5.168,3.296 -8.454,3.296Z" style="fill:#fff;fill-rule:nonzero;"/><path d="M777.677,101.828l0,51.583l-20.748,0l0,-88.034l19.831,0l0,14.959l1.032,0c2.025,-4.891 5.263,-8.798 9.714,-11.721c4.452,-2.923 9.963,-4.384 16.535,-4.384c9.094,0 16.401,2.884 21.923,8.654c5.521,5.77 8.262,13.927 8.224,24.473l0,56.053l-20.747,0l0,-52.843c0,-5.885 -1.519,-10.489 -4.557,-13.813c-3.037,-3.324 -7.231,-4.986 -12.58,-4.986c-5.464,0 -9.934,1.748 -13.411,5.244c-3.478,3.496 -5.216,8.435 -5.216,14.815Z" style="fill:#fff;fill-rule:nonzero;"/><path d="M899.296,65.377l0,16.048l-17.366,0l0,45.507c0,4.165 0.917,6.906 2.751,8.224c1.834,1.319 4.05,1.978 6.648,1.978c1.299,0 2.493,-0.096 3.582,-0.287c1.089,-0.191 1.92,-0.363 2.494,-0.515l3.496,16.219c-1.108,0.382 -2.685,0.803 -4.729,1.261c-2.044,0.459 -4.537,0.726 -7.479,0.803c-7.795,0.229 -14.338,-1.682 -19.63,-5.732c-5.292,-4.05 -7.919,-10.221 -7.881,-18.512l0,-48.946l-12.494,0l0,-16.048l12.494,0l0,-21.091l20.748,0l0,21.091l17.366,0Z" style="fill:#fff;fill-rule:nonzero;"/></g><path d="M357.117,233.943l0,-47.819l5.339,0l0,4.492c1.258,-1.758 2.68,-3.076 4.264,-3.955c1.584,-0.879 3.505,-1.318 5.762,-1.318c2.951,0 5.555,0.759 7.812,2.278c2.257,1.52 3.961,3.663 5.111,6.429c1.15,2.767 1.725,5.8 1.725,9.099c0,3.537 -0.635,6.722 -1.904,9.554c-1.27,2.832 -3.114,5.002 -5.534,6.51c-2.42,1.508 -4.964,2.263 -7.633,2.263c-1.954,0 -3.706,-0.413 -5.258,-1.237c-1.551,-0.825 -2.826,-1.867 -3.825,-3.125l0,16.829l-5.859,0Zm5.306,-30.339c0,4.449 0.901,7.737 2.702,9.864c1.801,2.127 3.982,3.19 6.543,3.19c2.604,0 4.834,-1.101 6.689,-3.304c1.856,-2.203 2.784,-5.615 2.784,-10.238c0,-4.405 -0.906,-7.704 -2.719,-9.896c-1.812,-2.191 -3.976,-3.287 -6.494,-3.287c-2.495,0 -4.703,1.166 -6.624,3.499c-1.921,2.333 -2.881,5.724 -2.881,10.172Z" style="fill:#fff;fill-rule:nonzero;"/><path d="M392.013,203.409c0,-6.402 1.779,-11.143 5.338,-14.225c2.974,-2.561 6.598,-3.841 10.873,-3.841c4.752,0 8.637,1.557 11.654,4.671c3.016,3.114 4.524,7.416 4.524,12.907c0,4.449 -0.667,7.948 -2.002,10.498c-1.334,2.55 -3.277,4.53 -5.827,5.941c-2.549,1.41 -5.333,2.116 -8.349,2.116c-4.84,0 -8.751,-1.552 -11.735,-4.655c-2.984,-3.104 -4.476,-7.574 -4.476,-13.412Zm6.022,0c0,4.427 0.966,7.742 2.897,9.945c1.932,2.203 4.362,3.304 7.292,3.304c2.908,0 5.328,-1.107 7.259,-3.32c1.931,-2.214 2.897,-5.589 2.897,-10.124c0,-4.275 -0.971,-7.514 -2.913,-9.717c-1.943,-2.203 -4.357,-3.304 -7.243,-3.304c-2.93,0 -5.36,1.096 -7.292,3.288c-1.931,2.192 -2.897,5.501 -2.897,9.928Z" style="fill:#fff;fill-rule:nonzero;"/><path d="M437.651,220.694l-10.579,-34.57l6.054,0l5.502,19.954l2.05,7.422c0.087,-0.369 0.684,-2.745 1.791,-7.129l5.501,-20.247l6.022,0l5.176,20.052l1.725,6.608l1.986,-6.673l5.924,-19.987l5.697,0l-10.807,34.57l-6.088,0l-5.501,-20.703l-1.335,-5.892l-6.998,26.595l-6.12,0Z" style="fill:#fff;fill-rule:nonzero;"/><path d="M503.081,209.562l6.054,0.748c-0.955,3.538 -2.723,6.283 -5.306,8.236c-2.582,1.953 -5.881,2.93 -9.895,2.93c-5.057,0 -9.066,-1.557 -12.028,-4.672c-2.963,-3.114 -4.444,-7.481 -4.444,-13.102c0,-5.816 1.498,-10.33 4.492,-13.542c2.995,-3.211 6.88,-4.817 11.654,-4.817c4.622,0 8.398,1.573 11.328,4.72c2.93,3.147 4.395,7.574 4.395,13.281c0,0.347 -0.011,0.868 -0.033,1.563l-25.781,0c0.217,3.797 1.291,6.705 3.223,8.724c1.931,2.018 4.34,3.027 7.226,3.027c2.149,0 3.982,-0.564 5.501,-1.693c1.519,-1.128 2.724,-2.93 3.614,-5.403Zm-19.239,-9.473l19.304,0c-0.261,-2.908 -0.999,-5.089 -2.214,-6.543c-1.866,-2.257 -4.286,-3.386 -7.259,-3.386c-2.691,0 -4.953,0.901 -6.787,2.702c-1.834,1.802 -2.848,4.21 -3.044,7.227Z" style="fill:#fff;fill-rule:nonzero;"/><path d="M516.427,220.694l0,-34.57l5.273,0l0,5.241c1.346,-2.452 2.588,-4.069 3.728,-4.85c1.139,-0.782 2.392,-1.172 3.759,-1.172c1.975,0 3.983,0.629 6.023,1.888l-2.019,5.436c-1.432,-0.846 -2.864,-1.27 -4.297,-1.27c-1.28,0 -2.43,0.386 -3.45,1.156c-1.02,0.77 -1.747,1.839 -2.181,3.206c-0.651,2.084 -0.977,4.362 -0.977,6.836l0,18.099l-5.859,0Z" style="fill:#fff;fill-rule:nonzero;"/><path d="M562.358,209.562l6.055,0.748c-0.955,3.538 -2.724,6.283 -5.306,8.236c-2.583,1.953 -5.881,2.93 -9.896,2.93c-5.057,0 -9.066,-1.557 -12.028,-4.672c-2.962,-3.114 -4.443,-7.481 -4.443,-13.102c0,-5.816 1.497,-10.33 4.492,-13.542c2.994,-3.211 6.879,-4.817 11.653,-4.817c4.623,0 8.399,1.573 11.328,4.72c2.93,3.147 4.395,7.574 4.395,13.281c0,0.347 -0.011,0.868 -0.033,1.563l-25.781,0c0.217,3.797 1.291,6.705 3.223,8.724c1.931,2.018 4.34,3.027 7.226,3.027c2.149,0 3.983,-0.564 5.502,-1.693c1.519,-1.128 2.723,-2.93 3.613,-5.403Zm-19.238,-9.473l19.303,0c-0.26,-2.908 -0.998,-5.089 -2.213,-6.543c-1.867,-2.257 -4.286,-3.386 -7.26,-3.386c-2.691,0 -4.953,0.901 -6.787,2.702c-1.833,1.802 -2.848,4.21 -3.043,7.227Z" style="fill:#fff;fill-rule:nonzero;"/><path d="M598.198,220.694l0,-4.362c-2.192,3.429 -5.415,5.144 -9.668,5.144c-2.756,0 -5.29,-0.76 -7.601,-2.279c-2.311,-1.519 -4.102,-3.64 -5.371,-6.364c-1.27,-2.724 -1.904,-5.854 -1.904,-9.391c0,-3.451 0.575,-6.581 1.725,-9.392c1.15,-2.81 2.875,-4.964 5.176,-6.461c2.3,-1.498 4.872,-2.246 7.714,-2.246c2.084,0 3.939,0.439 5.567,1.318c1.627,0.879 2.951,2.024 3.971,3.434l0,-17.122l5.827,0l0,47.721l-5.436,0Zm-18.522,-17.252c0,4.427 0.933,7.736 2.799,9.928c1.867,2.192 4.069,3.288 6.608,3.288c2.561,0 4.737,-1.047 6.527,-3.141c1.79,-2.095 2.686,-5.29 2.686,-9.587c0,-4.731 -0.912,-8.203 -2.735,-10.417c-1.823,-2.213 -4.069,-3.32 -6.738,-3.32c-2.604,0 -4.78,1.063 -6.527,3.19c-1.747,2.127 -2.62,5.48 -2.62,10.059Z" style="fill:#fff;fill-rule:nonzero;"/></svg>