<?xml version="1.0" encoding="UTF-8" standalone="no"?><!DOCTYPE svg PUBLIC "-//W3C//DTD SVG 1.1//EN" "http://www.w3.org/Graphics/SVG/1.1/DTD/svg11.dtd"><svg width="100%" height="100%" viewBox="0 0 100 100" version="1.1" xmlns="http://www.w3.org/2000/svg" xmlns:xlink="http://www.w3.org/1999/xlink" xml:space="preserve" xmlns:serif="http://www.serif.com/" style="fill-rule:evenodd;clip-rule:evenodd;stroke-linejoin:round;stroke-miterlimit:2;"><path d="M50,0c27.596,0 50,22.404 50,50c0,27.596 -22.404,50 -50,50c-27.596,0 -50,-22.404 -50,-50c0,-27.596 22.404,-50 50,-50Zm-6.627,58.812c0.129,-14.981 12.33,-27.104 27.341,-27.104c1.698,0 3.36,0.155 4.967,0.46c1.494,3.37 2.319,7.095 2.319,11.011c0,12.345 -8.199,22.79 -19.443,26.182c-0.896,-2.163 -2.224,-4.102 -3.875,-5.711c-0.383,-0.377 -0.783,-0.737 -1.199,-1.077c1.651,-6.908 5.926,-12.799 11.711,-16.556c-6.698,2.651 -12.1,7.875 -14.986,14.451c-2.074,-1.02 -4.385,-1.632 -6.828,-1.73l-0.002,0.074l-0.005,0Zm-4.134,-4.799c-0.664,3.909 -0.484,8.023 0.682,12.085c0.316,1.103 0.696,2.171 1.142,3.196c-10.418,-3.148 -18.378,-12.409 -19.328,-23.915c-0.046,-0.557 -0.074,-1.111 -0.081,-1.661c3.365,-1.937 7.202,-3.179 11.328,-3.52c4.087,-0.337 8.04,0.245 11.649,1.574c-2.195,2.823 -3.825,6.058 -4.784,9.513c-5.073,0.345 -9.974,-1.613 -13.417,-5.161c2.826,4.479 7.592,7.382 12.809,7.889Z"/></svg>